<svg width="135" height="25" viewBox="0 0 135 25" fill="none" xmlns="http://www.w3.org/2000/svg">
<path d="M0.125 13.525C0.125 12.3583 0.3 11.3417 0.65 10.475C1.01667 9.59168 1.49167 8.85834 2.075 8.27501C2.65833 7.69168 3.325 7.25001 4.075 6.95001C4.84167 6.65001 5.625 6.50001 6.425 6.50001C8.29167 6.50001 9.76667 7.07501 10.85 8.22501C11.9333 9.35834 12.475 11.0333 12.475 13.25C12.475 13.4667 12.4667 13.7083 12.45 13.975C12.4333 14.225 12.4167 14.45 12.4 14.65H3.95C4.03333 15.4167 4.39167 16.025 5.025 16.475C5.65833 16.925 6.50833 17.15 7.575 17.15C8.25833 17.15 8.925 17.0917 9.575 16.975C10.2417 16.8417 10.7833 16.6833 11.2 16.5L11.7 19.525C11.5 19.625 11.2333 19.725 10.9 19.825C10.5667 19.925 10.1917 20.0083 9.775 20.075C9.375 20.1583 8.94167 20.225 8.475 20.275C8.00833 20.325 7.54167 20.35 7.075 20.35C5.89167 20.35 4.85833 20.175 3.975 19.825C3.10833 19.475 2.38333 19 1.8 18.4C1.23333 17.7833 0.808333 17.0583 0.525 16.225C0.258333 15.3917 0.125 14.4917 0.125 13.525ZM8.875 12.1C8.85833 11.7833 8.8 11.475 8.7 11.175C8.61667 10.875 8.475 10.6083 8.275 10.375C8.09167 10.1417 7.85 9.95001 7.55 9.80001C7.26667 9.65001 6.90833 9.57501 6.475 9.57501C6.05833 9.57501 5.7 9.65001 5.4 9.80001C5.1 9.93334 4.85 10.1167 4.65 10.35C4.45 10.5833 4.29167 10.8583 4.175 11.175C4.075 11.475 4 11.7833 3.95 12.1H8.875ZM15.3496 7.30001C15.9829 7.11668 16.7996 6.95001 17.7996 6.80001C18.7996 6.63334 19.8496 6.55001 20.9496 6.55001C22.0663 6.55001 22.9913 6.70001 23.7246 7.00001C24.4746 7.28334 25.0663 7.69168 25.4996 8.22501C25.9329 8.75834 26.2413 9.39168 26.4246 10.125C26.6079 10.8583 26.6996 11.675 26.6996 12.575V20H22.9746V13.025C22.9746 11.825 22.8163 10.975 22.4996 10.475C22.1829 9.97501 21.5913 9.72501 20.7246 9.72501C20.4579 9.72501 20.1746 9.74168 19.8746 9.77501C19.5746 9.79168 19.3079 9.81668 19.0746 9.85001V20H15.3496V7.30001ZM28.8463 24.625C28.613 24.625 28.2713 24.6 27.8213 24.55C27.3546 24.5 26.9213 24.4083 26.5213 24.275L27.0213 21.25C27.2713 21.3333 27.5046 21.3917 27.7213 21.425C27.9213 21.4583 28.1796 21.475 28.4963 21.475C29.0796 21.475 29.488 21.3 29.7213 20.95C29.9546 20.6 30.0713 20.0917 30.0713 19.425V6.85001H33.7963V19.525C33.7963 21.2583 33.3713 22.5417 32.5213 23.375C31.6713 24.2083 30.4463 24.625 28.8463 24.625ZM34.1463 3.05001C34.1463 3.73334 33.9213 4.27501 33.4713 4.67501C33.038 5.05834 32.5213 5.25001 31.9213 5.25001C31.3213 5.25001 30.7963 5.05834 30.3463 4.67501C29.913 4.27501 29.6963 3.73334 29.6963 3.05001C29.6963 2.36668 29.913 1.83334 30.3463 1.45001C30.7963 1.05001 31.3213 0.850006 31.9213 0.850006C32.5213 0.850006 33.038 1.05001 33.4713 1.45001C33.9213 1.83334 34.1463 2.36668 34.1463 3.05001ZM42.3229 17.4C42.6895 17.4 43.0395 17.3917 43.3729 17.375C43.7062 17.3583 43.9729 17.3333 44.1729 17.3V14.475C44.0229 14.4417 43.7979 14.4083 43.4979 14.375C43.1979 14.3417 42.9229 14.325 42.6729 14.325C42.3229 14.325 41.9895 14.35 41.6729 14.4C41.3729 14.4333 41.1062 14.5083 40.8729 14.625C40.6395 14.7417 40.4562 14.9 40.3229 15.1C40.1895 15.3 40.1229 15.55 40.1229 15.85C40.1229 16.4333 40.3145 16.8417 40.6979 17.075C41.0979 17.2917 41.6395 17.4 42.3229 17.4ZM42.0229 6.50001C43.1229 6.50001 44.0395 6.62501 44.7729 6.87501C45.5062 7.12501 46.0895 7.48334 46.5229 7.95001C46.9729 8.41668 47.2895 8.98334 47.4729 9.65001C47.6562 10.3167 47.7479 11.0583 47.7479 11.875V19.625C47.2145 19.7417 46.4729 19.875 45.5229 20.025C44.5729 20.1917 43.4229 20.275 42.0729 20.275C41.2229 20.275 40.4479 20.2 39.7479 20.05C39.0645 19.9 38.4729 19.6583 37.9729 19.325C37.4729 18.975 37.0895 18.525 36.8229 17.975C36.5562 17.425 36.4229 16.75 36.4229 15.95C36.4229 15.1833 36.5729 14.5333 36.8729 14C37.1895 13.4667 37.6062 13.0417 38.1229 12.725C38.6395 12.4083 39.2312 12.1833 39.8979 12.05C40.5645 11.9 41.2562 11.825 41.9729 11.825C42.4562 11.825 42.8812 11.85 43.2479 11.9C43.6312 11.9333 43.9395 11.9833 44.1729 12.05V11.7C44.1729 11.0667 43.9812 10.5583 43.5979 10.175C43.2145 9.79168 42.5479 9.60001 41.5979 9.60001C40.9645 9.60001 40.3395 9.65001 39.7229 9.75001C39.1062 9.83334 38.5729 9.95834 38.1229 10.125L37.6479 7.12501C37.8645 7.05834 38.1312 6.99168 38.4479 6.92501C38.7812 6.84168 39.1395 6.77501 39.5229 6.72501C39.9062 6.65834 40.3062 6.60834 40.7229 6.57501C41.1562 6.52501 41.5895 6.50001 42.0229 6.50001ZM50.4912 13.425C50.4912 12.475 50.6412 11.5833 50.9412 10.75C51.2579 9.90001 51.7079 9.16668 52.2912 8.55001C52.8745 7.91668 53.5829 7.41668 54.4162 7.05001C55.2495 6.68334 56.1995 6.50001 57.2662 6.50001C57.9662 6.50001 58.6079 6.56668 59.1912 6.70001C59.7745 6.81668 60.3412 6.99168 60.8912 7.22501L60.1162 10.2C59.7662 10.0667 59.3829 9.95001 58.9662 9.85001C58.5495 9.75001 58.0829 9.70001 57.5662 9.70001C56.4662 9.70001 55.6412 10.0417 55.0912 10.725C54.5579 11.4083 54.2912 12.3083 54.2912 13.425C54.2912 14.6083 54.5412 15.525 55.0412 16.175C55.5579 16.825 56.4495 17.15 57.7162 17.15C58.1662 17.15 58.6495 17.1083 59.1662 17.025C59.6829 16.9417 60.1579 16.8083 60.5912 16.625L61.1162 19.675C60.6829 19.8583 60.1412 20.0167 59.4912 20.15C58.8412 20.2833 58.1245 20.35 57.3412 20.35C56.1412 20.35 55.1079 20.175 54.2412 19.825C53.3745 19.4583 52.6579 18.9667 52.0912 18.35C51.5412 17.7333 51.1329 17.0083 50.8662 16.175C50.6162 15.325 50.4912 14.4083 50.4912 13.425ZM62.3564 13.525C62.3564 12.3583 62.5314 11.3417 62.8814 10.475C63.2481 9.59168 63.7231 8.85834 64.3064 8.27501C64.8898 7.69168 65.5564 7.25001 66.3064 6.95001C67.0731 6.65001 67.8564 6.50001 68.6564 6.50001C70.5231 6.50001 71.9981 7.07501 73.0814 8.22501C74.1648 9.35834 74.7064 11.0333 74.7064 13.25C74.7064 13.4667 74.6981 13.7083 74.6814 13.975C74.6648 14.225 74.6481 14.45 74.6314 14.65H66.1814C66.2648 15.4167 66.6231 16.025 67.2564 16.475C67.8898 16.925 68.7398 17.15 69.8064 17.15C70.4898 17.15 71.1564 17.0917 71.8064 16.975C72.4731 16.8417 73.0148 16.6833 73.4314 16.5L73.9314 19.525C73.7314 19.625 73.4648 19.725 73.1314 19.825C72.7981 19.925 72.4231 20.0083 72.0064 20.075C71.6064 20.1583 71.1731 20.225 70.7064 20.275C70.2398 20.325 69.7731 20.35 69.3064 20.35C68.1231 20.35 67.0898 20.175 66.2064 19.825C65.3398 19.475 64.6148 19 64.0314 18.4C63.4648 17.7833 63.0398 17.0583 62.7564 16.225C62.4898 15.3917 62.3564 14.4917 62.3564 13.525ZM71.1064 12.1C71.0898 11.7833 71.0314 11.475 70.9314 11.175C70.8481 10.875 70.7064 10.6083 70.5064 10.375C70.3231 10.1417 70.0814 9.95001 69.7814 9.80001C69.4981 9.65001 69.1398 9.57501 68.7064 9.57501C68.2898 9.57501 67.9314 9.65001 67.6314 9.80001C67.3314 9.93334 67.0814 10.1167 66.8814 10.35C66.6814 10.5833 66.5231 10.8583 66.4064 11.175C66.3064 11.475 66.2314 11.7833 66.1814 12.1H71.1064ZM85.5061 10.15C85.1727 10.0667 84.7811 9.98334 84.3311 9.90001C83.8811 9.80001 83.3977 9.75001 82.8811 9.75001C82.6477 9.75001 82.3644 9.77501 82.0311 9.82501C81.7144 9.85834 81.4727 9.90001 81.3061 9.95001V20H77.5811V7.55001C78.2477 7.31668 79.0311 7.10001 79.9311 6.90001C80.8477 6.68334 81.8644 6.57501 82.9811 6.57501C83.1811 6.57501 83.4227 6.59168 83.7061 6.62501C83.9894 6.64168 84.2727 6.67501 84.5561 6.72501C84.8394 6.75834 85.1227 6.80834 85.4061 6.87501C85.6894 6.92501 85.9311 6.99168 86.1311 7.07501L85.5061 10.15Z" fill="#6759FF"/>
<path d="M91.7779 18.025C91.7779 18.775 91.5363 19.35 91.0529 19.75C90.5863 20.1333 90.0529 20.325 89.4529 20.325C88.8529 20.325 88.3113 20.1333 87.8279 19.75C87.3613 19.35 87.1279 18.775 87.1279 18.025C87.1279 17.275 87.3613 16.7083 87.8279 16.325C88.3113 15.925 88.8529 15.725 89.4529 15.725C90.0529 15.725 90.5863 15.925 91.0529 16.325C91.5363 16.7083 91.7779 17.275 91.7779 18.025ZM98.5484 17.4C98.9151 17.4 99.2651 17.3917 99.5984 17.375C99.9318 17.3583 100.198 17.3333 100.398 17.3V14.475C100.248 14.4417 100.023 14.4083 99.7234 14.375C99.4234 14.3417 99.1484 14.325 98.8984 14.325C98.5484 14.325 98.2151 14.35 97.8984 14.4C97.5984 14.4333 97.3318 14.5083 97.0984 14.625C96.8651 14.7417 96.6818 14.9 96.5484 15.1C96.4151 15.3 96.3484 15.55 96.3484 15.85C96.3484 16.4333 96.5401 16.8417 96.9234 17.075C97.3234 17.2917 97.8651 17.4 98.5484 17.4ZM98.2484 6.5C99.3484 6.5 100.265 6.625 100.998 6.875C101.732 7.125 102.315 7.48333 102.748 7.95C103.198 8.41667 103.515 8.98333 103.698 9.65C103.882 10.3167 103.973 11.0583 103.973 11.875V19.625C103.44 19.7417 102.698 19.875 101.748 20.025C100.798 20.1917 99.6484 20.275 98.2984 20.275C97.4484 20.275 96.6734 20.2 95.9734 20.05C95.2901 19.9 94.6984 19.6583 94.1984 19.325C93.6984 18.975 93.3151 18.525 93.0484 17.975C92.7818 17.425 92.6484 16.75 92.6484 15.95C92.6484 15.1833 92.7984 14.5333 93.0984 14C93.4151 13.4667 93.8318 13.0417 94.3484 12.725C94.8651 12.4083 95.4568 12.1833 96.1234 12.05C96.7901 11.9 97.4818 11.825 98.1984 11.825C98.6818 11.825 99.1068 11.85 99.4734 11.9C99.8568 11.9333 100.165 11.9833 100.398 12.05V11.7C100.398 11.0667 100.207 10.5583 99.8234 10.175C99.4401 9.79167 98.7734 9.6 97.8234 9.6C97.1901 9.6 96.5651 9.65 95.9484 9.75C95.3318 9.83333 94.7984 9.95833 94.3484 10.125L93.8734 7.125C94.0901 7.05833 94.3568 6.99167 94.6734 6.925C95.0068 6.84167 95.3651 6.775 95.7484 6.725C96.1318 6.65833 96.5318 6.60833 96.9484 6.575C97.3818 6.525 97.8151 6.5 98.2484 6.5ZM115.767 13.525C115.767 12.375 115.508 11.4583 114.992 10.775C114.475 10.075 113.708 9.725 112.692 9.725C112.358 9.725 112.05 9.74167 111.767 9.775C111.483 9.79167 111.25 9.81667 111.067 9.85V16.575C111.3 16.725 111.6 16.85 111.967 16.95C112.35 17.05 112.733 17.1 113.117 17.1C114.883 17.1 115.767 15.9083 115.767 13.525ZM119.567 13.425C119.567 14.4417 119.442 15.3667 119.192 16.2C118.942 17.0333 118.575 17.75 118.092 18.35C117.608 18.95 117.008 19.4167 116.292 19.75C115.575 20.0833 114.75 20.25 113.817 20.25C113.3 20.25 112.817 20.2 112.367 20.1C111.917 20 111.483 19.8583 111.067 19.675V24.625H107.342V7.3C107.675 7.2 108.058 7.10833 108.492 7.025C108.925 6.925 109.375 6.84167 109.842 6.775C110.325 6.70833 110.808 6.65833 111.292 6.625C111.792 6.575 112.267 6.55 112.717 6.55C113.8 6.55 114.767 6.71667 115.617 7.05C116.467 7.36667 117.183 7.825 117.767 8.425C118.35 9.00833 118.792 9.725 119.092 10.575C119.408 11.425 119.567 12.375 119.567 13.425ZM130.855 13.525C130.855 12.375 130.596 11.4583 130.08 10.775C129.563 10.075 128.796 9.725 127.78 9.725C127.446 9.725 127.138 9.74167 126.855 9.775C126.571 9.79167 126.338 9.81667 126.155 9.85V16.575C126.388 16.725 126.688 16.85 127.055 16.95C127.438 17.05 127.821 17.1 128.205 17.1C129.971 17.1 130.855 15.9083 130.855 13.525ZM134.655 13.425C134.655 14.4417 134.53 15.3667 134.28 16.2C134.03 17.0333 133.663 17.75 133.18 18.35C132.696 18.95 132.096 19.4167 131.38 19.75C130.663 20.0833 129.838 20.25 128.905 20.25C128.388 20.25 127.905 20.2 127.455 20.1C127.005 20 126.571 19.8583 126.155 19.675V24.625H122.43V7.3C122.763 7.2 123.146 7.10833 123.58 7.025C124.013 6.925 124.463 6.84167 124.93 6.775C125.413 6.70833 125.896 6.65833 126.38 6.625C126.88 6.575 127.355 6.55 127.805 6.55C128.888 6.55 129.855 6.71667 130.705 7.05C131.555 7.36667 132.271 7.825 132.855 8.425C133.438 9.00833 133.88 9.725 134.18 10.575C134.496 11.425 134.655 12.375 134.655 13.425Z" fill="#8C8CF0"/>
<path d="M91.7779 18.025C91.7779 18.775 91.5363 19.35 91.0529 19.75C90.5863 20.1333 90.0529 20.325 89.4529 20.325C88.8529 20.325 88.3113 20.1333 87.8279 19.75C87.3613 19.35 87.1279 18.775 87.1279 18.025C87.1279 17.275 87.3613 16.7083 87.8279 16.325C88.3113 15.925 88.8529 15.725 89.4529 15.725C90.0529 15.725 90.5863 15.925 91.0529 16.325C91.5363 16.7083 91.7779 17.275 91.7779 18.025ZM98.5484 17.4C98.9151 17.4 99.2651 17.3917 99.5984 17.375C99.9318 17.3583 100.198 17.3333 100.398 17.3V14.475C100.248 14.4417 100.023 14.4083 99.7234 14.375C99.4234 14.3417 99.1484 14.325 98.8984 14.325C98.5484 14.325 98.2151 14.35 97.8984 14.4C97.5984 14.4333 97.3318 14.5083 97.0984 14.625C96.8651 14.7417 96.6818 14.9 96.5484 15.1C96.4151 15.3 96.3484 15.55 96.3484 15.85C96.3484 16.4333 96.5401 16.8417 96.9234 17.075C97.3234 17.2917 97.8651 17.4 98.5484 17.4ZM98.2484 6.5C99.3484 6.5 100.265 6.625 100.998 6.875C101.732 7.125 102.315 7.48333 102.748 7.95C103.198 8.41667 103.515 8.98333 103.698 9.65C103.882 10.3167 103.973 11.0583 103.973 11.875V19.625C103.44 19.7417 102.698 19.875 101.748 20.025C100.798 20.1917 99.6484 20.275 98.2984 20.275C97.4484 20.275 96.6734 20.2 95.9734 20.05C95.2901 19.9 94.6984 19.6583 94.1984 19.325C93.6984 18.975 93.3151 18.525 93.0484 17.975C92.7818 17.425 92.6484 16.75 92.6484 15.95C92.6484 15.1833 92.7984 14.5333 93.0984 14C93.4151 13.4667 93.8318 13.0417 94.3484 12.725C94.8651 12.4083 95.4568 12.1833 96.1234 12.05C96.7901 11.9 97.4818 11.825 98.1984 11.825C98.6818 11.825 99.1068 11.85 99.4734 11.9C99.8568 11.9333 100.165 11.9833 100.398 12.05V11.7C100.398 11.0667 100.207 10.5583 99.8234 10.175C99.4401 9.79167 98.7734 9.6 97.8234 9.6C97.1901 9.6 96.5651 9.65 95.9484 9.75C95.3318 9.83333 94.7984 9.95833 94.3484 10.125L93.8734 7.125C94.0901 7.05833 94.3568 6.99167 94.6734 6.925C95.0068 6.84167 95.3651 6.775 95.7484 6.725C96.1318 6.65833 96.5318 6.60833 96.9484 6.575C97.3818 6.525 97.8151 6.5 98.2484 6.5ZM115.767 13.525C115.767 12.375 115.508 11.4583 114.992 10.775C114.475 10.075 113.708 9.725 112.692 9.725C112.358 9.725 112.05 9.74167 111.767 9.775C111.483 9.79167 111.25 9.81667 111.067 9.85V16.575C111.3 16.725 111.6 16.85 111.967 16.95C112.35 17.05 112.733 17.1 113.117 17.1C114.883 17.1 115.767 15.9083 115.767 13.525ZM119.567 13.425C119.567 14.4417 119.442 15.3667 119.192 16.2C118.942 17.0333 118.575 17.75 118.092 18.35C117.608 18.95 117.008 19.4167 116.292 19.75C115.575 20.0833 114.75 20.25 113.817 20.25C113.3 20.25 112.817 20.2 112.367 20.1C111.917 20 111.483 19.8583 111.067 19.675V24.625H107.342V7.3C107.675 7.2 108.058 7.10833 108.492 7.025C108.925 6.925 109.375 6.84167 109.842 6.775C110.325 6.70833 110.808 6.65833 111.292 6.625C111.792 6.575 112.267 6.55 112.717 6.55C113.8 6.55 114.767 6.71667 115.617 7.05C116.467 7.36667 117.183 7.825 117.767 8.425C118.35 9.00833 118.792 9.725 119.092 10.575C119.408 11.425 119.567 12.375 119.567 13.425ZM130.855 13.525C130.855 12.375 130.596 11.4583 130.08 10.775C129.563 10.075 128.796 9.725 127.78 9.725C127.446 9.725 127.138 9.74167 126.855 9.775C126.571 9.79167 126.338 9.81667 126.155 9.85V16.575C126.388 16.725 126.688 16.85 127.055 16.95C127.438 17.05 127.821 17.1 128.205 17.1C129.971 17.1 130.855 15.9083 130.855 13.525ZM134.655 13.425C134.655 14.4417 134.53 15.3667 134.28 16.2C134.03 17.0333 133.663 17.75 133.18 18.35C132.696 18.95 132.096 19.4167 131.38 19.75C130.663 20.0833 129.838 20.25 128.905 20.25C128.388 20.25 127.905 20.2 127.455 20.1C127.005 20 126.571 19.8583 126.155 19.675V24.625H122.43V7.3C122.763 7.2 123.146 7.10833 123.58 7.025C124.013 6.925 124.463 6.84167 124.93 6.775C125.413 6.70833 125.896 6.65833 126.38 6.625C126.88 6.575 127.355 6.55 127.805 6.55C128.888 6.55 129.855 6.71667 130.705 7.05C131.555 7.36667 132.271 7.825 132.855 8.425C133.438 9.00833 133.88 9.725 134.18 10.575C134.496 11.425 134.655 12.375 134.655 13.425Z" fill="#3CB371"/>
</svg>
